<svg width="960" height="540" viewBox="0 0 960 540" fill="none" xmlns="http://www.w3.org/2000/svg">
  <defs>
    <linearGradient id="bg" x1="0" y1="0" x2="1" y2="1">
      <stop offset="0" stop-color="#7C5DFF" stop-opacity="0.9"/>
      <stop offset="1" stop-color="#37D5FF" stop-opacity="0.8"/>
    </linearGradient>
    <radialGradient id="glow" cx="50%" cy="45%" r="60%">
      <stop offset="0" stop-color="#ffffff" stop-opacity="0.65"/>
      <stop offset="1" stop-color="#111523" stop-opacity="0"/>
    </radialGradient>
  </defs>
  <rect width="960" height="540" rx="24" fill="#0F1118"/>
  <rect x="12" y="12" width="936" height="516" rx="22" fill="url(#bg)" fill-opacity="0.12" stroke="rgba(255,255,255,0.08)" />
  <circle cx="680" cy="160" r="160" fill="url(#glow)"/>
  <circle cx="320" cy="340" r="200" fill="url(#glow)" fill-opacity="0.6"/>
  <rect x="120" y="120" width="340" height="220" rx="24" fill="rgba(15,17,24,0.8)" stroke="rgba(255,255,255,0.1)"/>
  <rect x="140" y="140" width="300" height="180" rx="18" fill="rgba(255,255,255,0.08)" stroke="rgba(255,255,255,0.18)"/>
  <rect x="520" y="170" width="320" height="180" rx="26" fill="rgba(15,17,24,0.85)" stroke="rgba(255,255,255,0.16)"/>
  <rect x="540" y="190" width="280" height="60" rx="12" fill="rgba(255,255,255,0.08)" />
  <rect x="540" y="260" width="220" height="36" rx="10" fill="rgba(255,255,255,0.06)" />
  <rect x="540" y="306" width="140" height="36" rx="10" fill="rgba(255,255,255,0.12)" />
  <rect x="180" y="380" width="220" height="18" rx="9" fill="rgba(255,255,255,0.08)"/>
  <rect x="560" y="120" width="180" height="18" rx="9" fill="rgba(255,255,255,0.08)"/>
  <circle cx="520" cy="320" r="14" fill="#37D5FF" fill-opacity="0.72"/>
  <circle cx="240" cy="190" r="12" fill="#7C5DFF" fill-opacity="0.6"/>
  <circle cx="300" cy="240" r="10" fill="#37D5FF" fill-opacity="0.6"/>
  <circle cx="360" cy="200" r="8" fill="#7C5DFF" fill-opacity="0.6"/>
  <circle cx="420" cy="250" r="10" fill="#37D5FF" fill-opacity="0.55"/>
  <rect x="580" y="214" width="120" height="10" rx="5" fill="#ffffff" fill-opacity="0.65"/>
  <rect x="580" y="234" width="90" height="10" rx="5" fill="#ffffff" fill-opacity="0.35"/>
  <rect x="560" y="272" width="180" height="10" rx="5" fill="#ffffff" fill-opacity="0.4"/>
  <rect x="560" y="292" width="140" height="10" rx="5" fill="#ffffff" fill-opacity="0.24"/>
</svg>
